<?xml version="1.0" standalone="no"?><!DOCTYPE svg PUBLIC "-//W3C//DTD SVG 1.1//EN" "http://www.w3.org/Graphics/SVG/1.1/DTD/svg11.dtd" ><svg xmlns="http://www.w3.org/2000/svg"><metadata></metadata><defs><font id="Ascender - Open Sans Bold Build 100" horiz-adv-x="2281"><font-face font-family="Open Sans" font-weight="700" font-stretch="normal" units-per-em="2048" panose-1="2 11 8 6 3 5 4 2 2 4" ascent="2189" descent="-600" x-height="4" bbox="-393 -492 2241 1937" underline-thickness="102" underline-position="-154" unicode-range="U+0020-2212" /><missing-glyph horiz-adv-x="1229" d="M193 1462 L1034 1462 L1034 0 L193 0 L193 1462 ZM297 104 L930 104 L930 1358 L297 1358 L297 104 Z" /><glyph glyph-name="space" unicode=" " d="" /><glyph glyph-name="exclam" unicode="!" d="M416 485 L172 485 L121 1462 L467 1462 L416 485 ZM117 143 Q117 227 162 270 Q207 313 293 313 Q376 313 421.5 269 Q467 225 467 143 Q467 64 421 18.5 Q375 -27 293 -27 Q209 -27 163 17.5 Q117 62 117 143 Z" /><glyph glyph-name="quotedbl" unicode="&quot;" d="M412 1462 L371 934 L174 934 L133 1462 L412 1462 ZM834 1462 L793 934 L596 934 L555 1462 L834 1462 Z" /><glyph glyph-name="numbersign" unicode="#" d="M999 844 L952 612 L1210 612 L1210 406 L913 406 L836 0 L616 0 L694 406 L500 406 L424 0 L209 0 L283 406 L45 406 L45 612 L322 612 L369 844 L117 844 L117 1053 L406 1053 L483 1460 L702 1460 L625 1053 L823 1053 L901 1460 L1116 1460 L1038 1053 L1278 1053 L1278 844 L999 844 ZM539 612 L735 612 L782 844 L586 844 L539 612 Z" /><glyph glyph-name="dollar" unicode="$" d="M1092 457 Q1092 298 977 201.5 Q862 105 655 86 L655 -119 L518 -119 L518 82 Q274 87 90 168 L90 432 Q177 389 299.5 356 Q422 323 518 317 L518 627 L451 653 Q253 731 170.5 822.5 Q88 914 88 1049 Q88 1194 201.5 1287.5 Q315 1381 518 1401 L518 1554 L655 1554 L655 1405 Q884 1395 1069 1313 L975 1079 Q819 1143 655 1157 L655 862 Q850 787 932.5 732 Q1015 677 1053.5 611 Q1092 545 1092 457 ZM791 442 Q791 484 757 513 Q723 542 655 573 L655 324 Q791 347 791 442 ZM389 1049 Q389 1005 419.5 976.5 Q450 948 518 918 L518 1153 Q389 1134 389 1049 Z" /><glyph glyph-name="percent" unicode="%" d="M315 1024 Q315 897 337.5 834.5 Q360 772 410 772 Q506 772 506 1024 Q506 1274 410 1274 Q360 1274 337.5 1212.5 Q315 1151 315 1024 ZM758 1026 Q758 796 669 680.5 Q580 565 408 565 Q243 565 153 683.5 Q63 802 63 1026 Q63 1483 408 1483 Q577 1483 667.5 1364.5 Q758 1246 758 1026 ZM1446 1462 L635 0 L395 0 L1206 1462 L1446 1462 ZM1339 440 Q1339 313 1361.5 250.5 Q1384 188 1434 188 Q1530 188 1530 440 Q1530 690 1434 690 Q1384 690 1361.5 628.5 Q1339 567 1339 440 ZM1782 442 Q1782 213 1693 97.5 Q1604 -18 1432 -18 Q1267 -18 1177 100.5 Q1087 219 1087 442 Q1087 899 1432 899 Q1601 899 1691.5 780.5 Q1782 662 1782 442 Z" /><glyph glyph-name="ampersand" unicode="&amp;" d="M1536 0 L1159 0 L1044 113 Q853 -20 612 -20 Q368 -20 225 92 Q82 204 82 395 Q82 532 142.5 628.5 Q203 725 350 809 Q275 895 241 973.5 Q207 1052 207 1145 Q207 1297 323.5 1390 Q440 1483 635 1483 Q821 1483 932.5 1396.5 Q1044 1310 1044 1165 Q1044 1046 975 947.5 Q906 849 752 760 L1036 483 Q1107 600 1159 784 L1477 784 Q1441 649 1378 520.5 Q1315 392 1235 293 L1536 0 ZM403 424 Q403 338 467.5 287 Q532 236 633 236 Q759 236 860 297 L528 627 Q470 583 436.5 535 Q403 487 403 424 ZM762 1133 Q762 1186 726 1216.5 Q690 1247 633 1247 Q566 1247 527.5 1215 Q489 1183 489 1124 Q489 1036 584 930 Q670 978 716 1024.5 Q762 1071 762 1133 Z" /><glyph glyph-name="quotesingle" unicode="&#39;" d="M412 1462 L371 934 L174 934 L133 1462 L412 1462 Z" /><glyph glyph-name="parenleft" unicode="(" d="M82 561 Q82 826 159.5 1057 Q237 1288 383 1462 L633 1462 Q492 1269 420 1038 Q348 807 348 563 Q348 318 421.5 89.5 Q495 -139 631 -324 L383 -324 Q236 -154 159 73 Q82 300 82 561 Z" /><glyph glyph-name="parenright" unicode=")" d="M612 561 Q612 298 534.5 71 Q457 -156 311 -324 L63 -324 Q198 -140 272 88.5 Q346 317 346 563 Q346 807 274 1038 Q202 1269 61 1462 L311 1462 Q458 1287 535 1055.5 Q612 824 612 561 Z" /><glyph glyph-name="asterisk" unicode="*" d="M688 1556 L647 1188 L1020 1292 L1053 1040 L713 1016 L936 719 L709 598 L553 911 L416 600 L180 719 L401 1016 L63 1042 L102 1292 L467 1188 L426 1556 L688 1556 Z" /><glyph glyph-name="plus" unicode="+" d="M475 612 L88 612 L88 831 L475 831 L475 1221 L694 1221 L694 831 L1081 831 L1081 612 L694 612 L694 227 L475 227 L475 612 Z" /><glyph glyph-name="comma" unicode="," d="M459 215 Q407 13 283 -264 L63 -264 Q128 2 164 238 L444 238 L459 215 Z" /><glyph glyph-name="hyphen" unicode="-" d="M61 424 L61 674 L598 674 L598 424 L61 424 Z" /><glyph glyph-name="period" unicode="." d="M117 143 Q117 227 162 270 Q207 313 293 313 Q376 313 421.5 269 Q467 225 467 143 Q467 64 421 18.5 Q375 -27 293 -27 Q209 -27 163 17.5 Q117 62 117 143 Z" /><glyph glyph-name="slash" unicode="/" d="M836 1462 L291 0 L14 0 L559 1462 L836 1462 Z" /><glyph glyph-name="zero" unicode="0" d="M1096 731 Q1096 348 970.5 164 Q845 -20 584 -20 Q331 -20 202.5 170 Q74 360 74 731 Q74 1118 199 1301.5 Q324 1485 584 1485 Q837 1485 966.5 1293 Q1096 1101 1096 731 ZM381 731 Q381 462 427.5 345.5 Q474 229 584 229 Q692 229 740 347 Q788 465 788 731 Q788 1000 739.5 1117.5 Q691 1235 584 1235 Q475 1235 428 1117.5 Q381 1000 381 731 Z" /><glyph glyph-name="one" unicode="1" d="M846 0 L537 0 L537 846 L540 985 L545 1137 Q468 1060 438 1036 L270 901 L121 1087 L592 1462 L846 1462 L846 0 Z" /><glyph glyph-name="two" unicode="2" d="M1104 0 L82 0 L82 215 L449 586 Q612 753 662 817.5 Q712 882 734 937 Q756 992 756 1051 Q756 1139 707.5 1182 Q659 1225 578 1225 Q493 1225 413 1186 Q333 1147 246 1075 L78 1274 Q186 1366 257 1404 Q328 1442 412 1462.5 Q496 1483 600 1483 Q737 1483 842 1433 Q947 1383 1005 1293 Q1063 1203 1063 1087 Q1063 986 1027.5 897.5 Q992 809 917.5 716 Q843 623 655 451 L467 274 L467 260 L1104 260 L1104 0 Z" /><glyph glyph-name="three" unicode="3" d="M1047 1135 Q1047 998 964 902 Q881 806 731 770 L731 764 Q908 742 999 656.5 Q1090 571 1090 426 Q1090 215 937 97.5 Q784 -20 500 -20 Q262 -20 78 59 L78 322 Q163 279 265 252 Q367 225 467 225 Q620 225 693 277 Q766 329 766 444 Q766 547 682 590 Q598 633 414 633 L303 633 L303 870 L416 870 Q586 870 664.5 914.5 Q743 959 743 1067 Q743 1233 535 1233 Q463 1233 388.5 1209 Q314 1185 223 1126 L80 1339 Q280 1483 557 1483 Q784 1483 915.5 1391 Q1047 1299 1047 1135 Z" /><glyph glyph-name="four" unicode="4" d="M1137 303 L961 303 L961 0 L659 0 L659 303 L35 303 L35 518 L676 1462 L961 1462 L961 543 L1137 543 L1137 303 ZM659 543 L659 791 Q659 853 664 971 Q669 1089 672 1108 L664 1108 Q627 1026 575 948 L307 543 L659 543 Z" /><glyph glyph-name="five" unicode="5" d="M614 934 Q826 934 951.5 815 Q1077 696 1077 489 Q1077 244 926 112 Q775 -20 494 -20 Q250 -20 100 59 L100 326 Q179 284 284 257.5 Q389 231 483 231 Q766 231 766 463 Q766 684 473 684 Q420 684 356 673.5 Q292 663 252 651 L129 717 L184 1462 L977 1462 L977 1200 L455 1200 L428 913 L463 920 Q524 934 614 934 Z" /><glyph glyph-name="six" unicode="6" d="M72 621 Q72 1055 255.5 1267 Q439 1479 805 1479 Q930 1479 1001 1464 L1001 1217 Q912 1237 825 1237 Q666 1237 565.5 1189 Q465 1141 415 1047 Q365 953 356 780 L369 780 Q468 950 686 950 Q882 950 993 827 Q1104 704 1104 487 Q1104 253 972 116.5 Q840 -20 606 -20 Q444 -20 323.5 55 Q203 130 137.5 274 Q72 418 72 621 ZM600 227 Q699 227 752 293.5 Q805 360 805 483 Q805 590 755.5 651.5 Q706 713 606 713 Q512 713 445.5 652 Q379 591 379 510 Q379 391 441.5 309 Q504 227 600 227 Z" /><glyph glyph-name="seven" unicode="7" d="M227 0 L776 1200 L55 1200 L55 1460 L1104 1460 L1104 1266 L551 0 L227 0 Z" /><glyph glyph-name="eight" unicode="8" d="M586 1481 Q796 1481 924.5 1385.5 Q1053 1290 1053 1128 Q1053 1016 991 928.5 Q929 841 791 772 Q955 684 1026.5 588.5 Q1098 493 1098 379 Q1098 199 957 89.5 Q816 -20 586 -20 Q346 -20 209 82 Q72 184 72 371 Q72 496 138.5 593 Q205 690 352 764 Q227 843 172 933 Q117 1023 117 1130 Q117 1287 247 1384 Q377 1481 586 1481 ZM358 389 Q358 303 418 255 Q478 207 582 207 Q697 207 754 256.5 Q811 306 811 387 Q811 454 754.5 512.5 Q698 571 571 637 Q358 539 358 389 ZM584 1255 Q505 1255 456.5 1214.5 Q408 1174 408 1106 Q408 1046 446.5 998.5 Q485 951 586 901 Q684 947 723 995 Q762 1043 762 1106 Q762 1175 712 1215 Q662 1255 584 1255 Z" /><glyph glyph-name="nine" unicode="9" d="M1098 838 Q1098 406 916 193 Q734 -20 365 -20 Q235 -20 168 -6 L168 242 Q252 221 344 221 Q499 221 599 266.5 Q699 312 752 409.5 Q805 507 813 678 L801 678 Q743 584 667 546 Q591 508 477 508 Q286 508 176 630.5 Q66 753 66 971 Q66 1206 199.5 1342.5 Q333 1479 563 1479 Q725 1479 846.5 1403 Q968 1327 1033 1182.5 Q1098 1038 1098 838 ZM569 1231 Q473 1231 419 1165 Q365 1099 365 975 Q365 869 414 807 Q463 745 563 745 Q657 745 724 806.5 Q791 868 791 948 Q791 1067 728.5 1149 Q666 1231 569 1231 Z" /><glyph glyph-name="colon" unicode=":" d="M117 143 Q117 227 162 270 Q207 313 293 313 Q376 313 421.5 269 Q467 225 467 143 Q467 64 421 18.5 Q375 -27 293 -27 Q209 -27 163 17.5 Q117 62 117 143 ZM117 969 Q117 1053 162 1096 Q207 1139 293 1139 Q376 1139 421.5 1095 Q467 1051 467 969 Q467 888 420.5 843.5 Q374 799 293 799 Q209 799 163 843 Q117 887 117 969 Z" /><glyph glyph-name="semicolon" unicode=";" d="M444 238 L459 215 Q407 13 283 -264 L63 -264 Q128 2 164 238 L444 238 ZM117 969 Q117 1053 162 1096 Q207 1139 293 1139 Q376 1139 421.5 1095 Q467 1051 467 969 Q467 888 420.5 843.5 Q374 799 293 799 Q209 799 163 843 Q117 887 117 969 Z" /><glyph glyph-name="less" unicode="&lt;" d="M1081 203 L88 641 L88 784 L1081 1280 L1081 1040 L397 723 L1081 442 L1081 203 Z" /><glyph glyph-name="equal" unicode="=" d="M88 805 L88 1024 L1081 1024 L1081 805 L88 805 ZM88 418 L88 637 L1081 637 L1081 418 L88 418 Z" /><glyph glyph-name="greater" unicode="&gt;" d="M88 442 L772 723 L88 1040 L88 1280 L1081 784 L1081 641 L88 203 L88 442 Z" /><glyph glyph-name="question" unicode="?" d="M276 485 L276 559 Q276 655 317 726 Q358 797 467 877 Q572 952 605.5 999 Q639 1046 639 1104 Q639 1169 591 1203 Q543 1237 457 1237 Q307 1237 115 1139 L6 1358 Q229 1483 479 1483 Q685 1483 806.5 1384 Q928 1285 928 1120 Q928 1010 878 930 Q828 850 688 750 Q592 679 566.5 642 Q541 605 541 545 L541 485 L276 485 ZM244 143 Q244 227 289 270 Q334 313 420 313 Q503 313 548.5 269 Q594 225 594 143 Q594 64 548 18.5 Q502 -27 420 -27 Q336 -27 290 17.5 Q244 62 244 143 Z" /><glyph glyph-name="at" unicode="@" d="M1735 752 Q1735 608 1689 488.5 Q1643 369 1559 301 Q1475 233 1364 233 Q1290 233 1233 268.5 Q1176 304 1151 362 L1135 362 Q1027 233 860 233 Q683 233 581 339.5 Q479 446 479 631 Q479 842 613 971 Q747 1100 963 1100 Q1049 1100 1152.5 1083.5 Q1256 1067 1323 1044 L1300 555 Q1300 416 1376 416 Q1440 416 1478 509.5 Q1516 603 1516 754 Q1516 915 1449 1038.5 Q1382 1162 1260.5 1227 Q1139 1292 983 1292 Q781 1292 632 1209 Q483 1126 403.5 969.5 Q324 813 324 608 Q324 332 471.5 184.5 Q619 37 899 37 Q1005 37 1132 60.5 Q1259 84 1382 129 L1382 -63 Q1168 -154 907 -154 Q527 -154 314.5 46 Q102 246 102 602 Q102 849 210.5 1050.5 Q319 1252 519.5 1366.5 Q720 1481 981 1481 Q1201 1481 1374 1391 Q1547 1301 1641 1135 Q1735 969 1735 752 ZM711 627 Q711 416 883 416 Q973 416 1020 479.5 Q1067 543 1077 686 L1090 907 Q1039 918 975 918 Q850 918 780.5 840 Q711 762 711 627 Z" /><glyph glyph-name="A" unicode="a" d="M1079 0 L973 348 L440 348 L334 0 L0 0 L516 1468 L895 1468 L1413 0 L1079 0 ZM899 608 Q752 1081 733.5 1143 Q715 1205 707 1241 Q674 1113 518 608 L899 608 Z" /><glyph glyph-name="B" unicode="b" d="M184 1462 L639 1462 Q950 1462 1090.5 1373.5 Q1231 1285 1231 1092 Q1231 961 1169.5 877 Q1108 793 1006 776 L1006 766 Q1145 735 1206.5 650 Q1268 565 1268 424 Q1268 224 1123.5 112 Q979 0 731 0 L184 0 L184 1462 ZM494 883 L674 883 Q800 883 856.5 922 Q913 961 913 1051 Q913 1135 851.5 1171.5 Q790 1208 657 1208 L494 1208 L494 883 ZM494 637 L494 256 L696 256 Q824 256 885 305 Q946 354 946 455 Q946 637 686 637 L494 637 Z" /><glyph glyph-name="C" unicode="c" d="M805 1225 Q630 1225 534 1093.5 Q438 962 438 727 Q438 238 805 238 Q959 238 1178 315 L1178 55 Q998 -20 776 -20 Q457 -20 288 173.5 Q119 367 119 729 Q119 957 202 1128.5 Q285 1300 440.5 1391.5 Q596 1483 805 1483 Q1018 1483 1233 1380 L1133 1128 Q1051 1167 968 1196 Q885 1225 805 1225 Z" /><glyph glyph-name="D" unicode="d" d="M1397 745 Q1397 384 1191.5 192 Q986 0 598 0 L184 0 L184 1462 L643 1462 Q1001 1462 1199 1273 Q1397 1084 1397 745 ZM1075 737 Q1075 1208 659 1208 L494 1208 L494 256 L627 256 Q1075 256 1075 737 Z" /><glyph glyph-name="E" unicode="e" d="M1026 0 L184 0 L184 1462 L1026 1462 L1026 1208 L494 1208 L494 887 L989 887 L989 633 L494 633 L494 256 L1026 256 L1026 0 Z" /><glyph glyph-name="F" unicode="f" d="M489 0 L184 0 L184 1462 L1022 1462 L1022 1208 L489 1208 L489 831 L985 831 L985 578 L489 578 L489 0 Z" /><glyph glyph-name="G" unicode="g" d="M739 821 L1319 821 L1319 63 Q1178 17 1053.5 -1.5 Q929 -20 799 -20 Q468 -20 293.5 174.5 Q119 369 119 733 Q119 1087 321.5 1285 Q524 1483 883 1483 Q1108 1483 1317 1393 L1214 1145 Q1054 1225 881 1225 Q680 1225 559 1090 Q438 955 438 727 Q438 489 535.5 363.5 Q633 238 819 238 Q916 238 1016 258 L1016 563 L739 563 L739 821 Z" /><glyph glyph-name="H" unicode="h" d="M1382 0 L1073 0 L1073 631 L494 631 L494 0 L184 0 L184 1462 L494 1462 L494 889 L1073 889 L1073 1462 L1382 1462 L1382 0 Z" /><glyph glyph-name="I" unicode="i" d="M184 0 L184 1462 L494 1462 L494 0 L184 0 Z" /><glyph glyph-name="J" unicode="j" d="M31 -430 Q-74 -430 -152 -408 L-152 -150 Q-72 -170 -6 -170 Q96 -170 140 -106.5 Q184 -43 184 92 L184 1462 L494 1462 L494 94 Q494 -162 377 -296 Q260 -430 31 -430 Z" /><glyph glyph-name="K" unicode="k" d="M1360 0 L1008 0 L625 616 L494 522 L494 0 L184 0 L184 1462 L494 1462 L494 793 L616 965 L1012 1462 L1356 1462 L846 815 L1360 0 Z" /><glyph glyph-name="L" unicode="l" d="M184 0 L184 1462 L494 1462 L494 256 L1087 256 L1087 0 L184 0 Z" /><glyph glyph-name="M" unicode="m" d="M803 0 L451 1147 L442 1147 Q461 797 461 680 L461 0 L184 0 L184 1462 L606 1462 L952 344 L958 344 L1325 1462 L1747 1462 L1747 0 L1458 0 L1458 692 Q1458 741 1459.5 805 Q1461 869 1473 1145 L1464 1145 L1087 0 L803 0 Z" /><glyph glyph-name="N" unicode="n" d="M1481 0 L1087 0 L451 1106 L442 1106 Q461 813 461 688 L461 0 L184 0 L184 1462 L575 1462 L1210 367 L1217 367 Q1202 652 1202 770 L1202 1462 L1481 1462 L1481 0 Z" /><glyph glyph-name="O" unicode="o" d="M1511 733 Q1511 370 1331 175 Q1151 -20 815 -20 Q479 -20 299 175 Q119 370 119 735 Q119 1100 299.5 1292.5 Q480 1485 817 1485 Q1154 1485 1332.5 1291 Q1511 1097 1511 733 ZM444 733 Q444 488 537 364 Q630 240 815 240 Q1186 240 1186 733 Q1186 1227 817 1227 Q632 1227 538 1102.5 Q444 978 444 733 Z" /><glyph glyph-name="P" unicode="p" d="M494 774 L596 774 Q739 774 810 830.5 Q881 887 881 995 Q881 1104 821.5 1156 Q762 1208 635 1208 L494 1208 L494 774 ZM1194 1006 Q1194 770 1046.5 645 Q899 520 627 520 L494 520 L494 0 L184 0 L184 1462 L651 1462 Q917 1462 1055.5 1347.5 Q1194 1233 1194 1006 Z" /><glyph glyph-name="Q" unicode="q" d="M1511 733 Q1511 475 1419.5 300.5 Q1328 126 1151 45 L1503 -348 L1106 -348 L838 -20 L815 -20 Q479 -20 299 175 Q119 370 119 735 Q119 1100 299.5 1292.5 Q480 1485 817 1485 Q1154 1485 1332.5 1291 Q1511 1097 1511 733 ZM444 733 Q444 488 537 364 Q630 240 815 240 Q1186 240 1186 733 Q1186 1227 817 1227 Q632 1227 538 1102.5 Q444 978 444 733 Z" /><glyph glyph-name="R" unicode="r" d="M494 813 L594 813 Q741 813 811 862 Q881 911 881 1016 Q881 1120 809.5 1164 Q738 1208 588 1208 L494 1208 L494 813 ZM494 561 L494 0 L184 0 L184 1462 L610 1462 Q908 1462 1051 1353.5 Q1194 1245 1194 1024 Q1194 895 1123 794.5 Q1052 694 922 637 Q1252 144 1352 0 L1008 0 L659 561 L494 561 Z" /><glyph glyph-name="S" unicode="s" d="M1047 406 Q1047 208 904.5 94 Q762 -20 508 -20 Q274 -20 94 68 L94 356 Q242 290 344.5 263 Q447 236 532 236 Q634 236 688.5 275 Q743 314 743 391 Q743 434 719 467.5 Q695 501 648.5 532 Q602 563 459 631 Q325 694 258 752 Q191 810 151 887 Q111 964 111 1067 Q111 1261 242.5 1372 Q374 1483 606 1483 Q720 1483 823.5 1456 Q927 1429 1040 1380 L940 1139 Q823 1187 746.5 1206 Q670 1225 596 1225 Q508 1225 461 1184 Q414 1143 414 1077 Q414 1036 433 1005.5 Q452 975 493.5 946.5 Q535 918 690 844 Q895 746 971 647.5 Q1047 549 1047 406 Z" /><glyph glyph-name="T" unicode="t" d="M748 0 L438 0 L438 1204 L41 1204 L41 1462 L1145 1462 L1145 1204 L748 1204 L748 0 Z" /><glyph glyph-name="U" unicode="u" d="M1374 1462 L1374 516 Q1374 354 1301.5 232 Q1229 110 1092 45 Q955 -20 768 -20 Q486 -20 330 124.5 Q174 269 174 520 L174 1462 L483 1462 L483 567 Q483 398 551 319 Q619 240 776 240 Q928 240 996.5 319.5 Q1065 399 1065 569 L1065 1462 L1374 1462 Z" /><glyph glyph-name="V" unicode="v" d="M1018 1462 L1331 1462 L834 0 L496 0 L0 1462 L313 1462 L588 592 Q611 515 635.5 412.5 Q660 310 666 270 Q677 362 741 592 L1018 1462 Z" /><glyph glyph-name="W" unicode="w" d="M1608 0 L1255 0 L1057 768 Q1046 809 1019.5 937.5 Q993 1066 989 1110 Q983 1056 959 936.5 Q935 817 922 766 L725 0 L373 0 L0 1462 L305 1462 L492 664 Q541 443 563 281 Q569 338 590.5 457.5 Q612 577 631 643 L844 1462 L1137 1462 L1350 643 Q1364 588 1385 475 Q1406 362 1417 281 Q1427 359 1449 475.5 Q1471 592 1489 664 L1675 1462 L1980 1462 L1608 0 Z" /><glyph glyph-name="X" unicode="x" d="M1366 0 L1012 0 L672 553 L332 0 L0 0 L485 754 L31 1462 L373 1462 L688 936 L997 1462 L1331 1462 L872 737 L1366 0 Z" /><glyph glyph-name="Y" unicode="y" d="M639 860 L944 1462 L1278 1462 L793 569 L793 0 L485 0 L485 559 L0 1462 L336 1462 L639 860 Z" /><glyph glyph-name="Z" unicode="z" d="M1137 0 L49 0 L49 201 L750 1206 L68 1206 L68 1462 L1118 1462 L1118 1262 L418 256 L1137 256 L1137 0 Z" /><glyph glyph-name="bracketleft" unicode="[" d="M627 -324 L143 -324 L143 1462 L627 1462 L627 1251 L403 1251 L403 -113 L627 -113 L627 -324 Z" /><glyph glyph-name="backslash" unicode="\" d="M289 1462 L834 0 L557 0 L12 1462 L289 1462 Z" /><glyph glyph-name="bracketright" unicode="]" d="M51 -113 L274 -113 L274 1251 L51 1251 L51 1462 L535 1462 L535 -324 L51 -324 L51 -113 Z" /><glyph glyph-name="asciicircum" unicode="^" d="M8 520 L446 1470 L590 1470 L1085 520 L846 520 L524 1163 L244 520 L8 520 Z" /><glyph glyph-name="underscore" unicode="_" d="M846 -324 L-4 -324 L-4 -184 L846 -184 L846 -324 Z" /><glyph glyph-name="grave" unicode="`" d="M707 1241 Q644 1285 522 1383.5 Q400 1482 332 1548 L332 1569 L674 1569 Q737 1468 909 1268 L909 1241 L707 1241 Z" /><glyph glyph-name="a" unicode="a" d="M870 0 L811 152 L803 152 Q726 55 644.5 17.5 Q563 -20 432 -20 Q271 -20 178.5 72 Q86 164 86 334 Q86 512 210.5 596.5 Q335 681 586 690 L780 696 L780 745 Q780 915 606 915 Q472 915 291 834 L190 1040 Q383 1141 618 1141 Q843 1141 963 1043 Q1083 945 1083 745 L1083 0 L870 0 ZM780 518 L662 514 Q529 510 464 466 Q399 422 399 332 Q399 203 547 203 Q653 203 716.5 264 Q780 325 780 426 L780 518 Z" /><glyph glyph-name="b" unicode="b" d="M782 1139 Q980 1139 1092 984.5 Q1204 830 1204 561 Q1204 284 1088.5 132 Q973 -20 774 -20 Q577 -20 465 123 L444 123 L393 0 L160 0 L160 1556 L465 1556 L465 1194 Q465 1125 453 973 L465 973 Q572 1139 782 1139 ZM684 895 Q571 895 519 825.5 Q467 756 465 596 L465 563 Q465 383 518.5 305 Q572 227 688 227 Q782 227 837.5 313.5 Q893 400 893 565 Q893 730 837 812.5 Q781 895 684 895 Z" /><glyph glyph-name="c" unicode="c" d="M614 -20 Q92 -20 92 553 Q92 838 234 988.5 Q376 1139 641 1139 Q835 1139 989 1063 L899 827 Q827 856 765 874.5 Q703 893 641 893 Q403 893 403 555 Q403 227 641 227 Q729 227 804 250.5 Q879 274 954 324 L954 63 Q880 16 804.5 -2 Q729 -20 614 -20 Z" /><glyph glyph-name="d" unicode="d" d="M514 -20 Q317 -20 204.5 133 Q92 286 92 557 Q92 832 206.5 985.5 Q321 1139 522 1139 Q733 1139 844 975 L854 975 Q831 1100 831 1198 L831 1556 L1137 1556 L1137 0 L903 0 L844 145 L831 145 Q727 -20 514 -20 ZM621 223 Q738 223 792.5 291 Q847 359 852 522 L852 555 Q852 735 796.5 813 Q741 891 616 891 Q514 891 457.5 804.5 Q401 718 401 553 Q401 388 458 305.5 Q515 223 621 223 Z" /><glyph glyph-name="e" unicode="e" d="M623 922 Q526 922 471 860.5 Q416 799 408 686 L836 686 Q834 799 777 860.5 Q720 922 623 922 ZM666 -20 Q396 -20 244 129 Q92 278 92 551 Q92 832 232.5 985.5 Q373 1139 621 1139 Q858 1139 990 1004 Q1122 869 1122 631 L1122 483 L401 483 Q406 353 478 280 Q550 207 680 207 Q781 207 871 228 Q961 249 1059 295 L1059 59 Q979 19 888 -0.5 Q797 -20 666 -20 Z" /><glyph glyph-name="f" unicode="f" d="M778 889 L514 889 L514 0 L209 0 L209 889 L41 889 L41 1036 L209 1118 L209 1200 Q209 1391 303 1479 Q397 1567 604 1567 Q762 1567 885 1520 L807 1296 Q715 1325 637 1325 Q572 1325 543 1286.5 Q514 1248 514 1188 L514 1118 L778 1118 L778 889 Z" /><glyph glyph-name="g" unicode="g" d="M1133 1118 L1133 963 L958 918 Q1006 843 1006 750 Q1006 570 880.5 469.5 Q755 369 532 369 L477 372 L432 377 Q385 341 385 297 Q385 231 553 231 L743 231 Q927 231 1023.5 152 Q1120 73 1120 -80 Q1120 -276 956.5 -384 Q793 -492 487 -492 Q253 -492 129.5 -410.5 Q6 -329 6 -182 Q6 -81 69 -13 Q132 55 254 84 Q207 104 172 149.5 Q137 195 137 246 Q137 310 174 352.5 Q211 395 281 436 Q193 474 141.5 558 Q90 642 90 756 Q90 939 209 1039 Q328 1139 549 1139 Q596 1139 660.5 1130.5 Q725 1122 743 1118 L1133 1118 ZM270 -158 Q270 -221 330.5 -257 Q391 -293 500 -293 Q664 -293 757 -248 Q850 -203 850 -125 Q850 -62 795 -38 Q740 -14 625 -14 L467 -14 Q383 -14 326.5 -53.5 Q270 -93 270 -158 ZM381 752 Q381 661 422.5 608 Q464 555 549 555 Q635 555 675 608 Q715 661 715 752 Q715 954 549 954 Q381 954 381 752 Z" /><glyph glyph-name="h" unicode="h" d="M1192 0 L887 0 L887 653 Q887 895 707 895 Q579 895 522 808 Q465 721 465 526 L465 0 L160 0 L160 1556 L465 1556 L465 1239 Q465 1202 458 1065 L451 975 L467 975 Q569 1139 791 1139 Q988 1139 1090 1033 Q1192 927 1192 729 L1192 0 Z" /><glyph glyph-name="i" unicode="i" d="M147 1407 Q147 1556 313 1556 Q479 1556 479 1407 Q479 1336 437.5 1296.5 Q396 1257 313 1257 Q147 1257 147 1407 ZM465 0 L160 0 L160 1118 L465 1118 L465 0 Z" /><glyph glyph-name="j" unicode="j" d="M70 -492 Q-47 -492 -131 -467 L-131 -227 Q-61 -246 12 -246 Q89 -246 124.5 -203 Q160 -160 160 -76 L160 1118 L465 1118 L465 -121 Q465 -299 362 -395.5 Q259 -492 70 -492 ZM147 1407 Q147 1556 313 1556 Q479 1556 479 1407 Q479 1336 437.5 1296.5 Q396 1257 313 1257 Q147 1257 147 1407 Z" /><glyph glyph-name="k" unicode="k" d="M453 608 L586 778 L899 1118 L1243 1118 L799 633 L1270 0 L918 0 L596 453 L465 348 L465 0 L160 0 L160 1556 L465 1556 L465 862 L449 608 L453 608 Z" /><glyph glyph-name="l" unicode="l" d="M465 0 L160 0 L160 1556 L465 1556 L465 0 Z" /><glyph glyph-name="m" unicode="m" d="M1161 0 L856 0 L856 653 Q856 774 815.5 834.5 Q775 895 688 895 Q571 895 518 809 Q465 723 465 526 L465 0 L160 0 L160 1118 L393 1118 L434 975 L451 975 Q496 1052 581 1095.5 Q666 1139 776 1139 Q1027 1139 1116 975 L1143 975 Q1188 1053 1275.5 1096 Q1363 1139 1473 1139 Q1663 1139 1760.5 1041.5 Q1858 944 1858 729 L1858 0 L1552 0 L1552 653 Q1552 774 1511.5 834.5 Q1471 895 1384 895 Q1272 895 1216.5 815 Q1161 735 1161 561 L1161 0 Z" /><glyph glyph-name="n" unicode="n" d="M1192 0 L887 0 L887 653 Q887 774 844 834.5 Q801 895 707 895 Q579 895 522 809.5 Q465 724 465 526 L465 0 L160 0 L160 1118 L393 1118 L434 975 L451 975 Q502 1056 591.5 1097.5 Q681 1139 795 1139 Q990 1139 1091 1033.5 Q1192 928 1192 729 L1192 0 Z" /><glyph glyph-name="o" unicode="o" d="M403 561 Q403 395 457.5 310 Q512 225 635 225 Q757 225 810.5 309.5 Q864 394 864 561 Q864 727 810 810 Q756 893 633 893 Q511 893 457 810.5 Q403 728 403 561 ZM1176 561 Q1176 288 1032 134 Q888 -20 631 -20 Q470 -20 347 50.5 Q224 121 158 253 Q92 385 92 561 Q92 835 235 987 Q378 1139 637 1139 Q798 1139 921 1069 Q1044 999 1110 868 Q1176 737 1176 561 Z" /><glyph glyph-name="p" unicode="p" d="M774 -20 Q577 -20 465 123 L449 123 Q465 -17 465 -39 L465 -492 L160 -492 L160 1118 L408 1118 L451 973 L465 973 Q572 1139 782 1139 Q980 1139 1092 986 Q1204 833 1204 561 Q1204 382 1151.5 250 Q1099 118 1002 49 Q905 -20 774 -20 ZM684 895 Q571 895 519 825.5 Q467 756 465 596 L465 563 Q465 383 518.5 305 Q572 227 688 227 Q893 227 893 565 Q893 730 842.5 812.5 Q792 895 684 895 Z" /><glyph glyph-name="q" unicode="q" d="M623 219 Q739 219 793 285.5 Q847 352 852 518 L852 555 Q852 735 796.5 813 Q741 891 618 891 Q403 891 403 553 Q403 385 456.5 302 Q510 219 623 219 ZM514 -20 Q316 -20 204 132.5 Q92 285 92 557 Q92 831 206.5 985 Q321 1139 520 1139 Q626 1139 705 1099 Q784 1059 844 975 L852 975 L879 1118 L1137 1118 L1137 -492 L831 -492 L831 -23 Q831 38 844 145 L831 145 Q782 64 701 22 Q620 -20 514 -20 Z" /><glyph glyph-name="r" unicode="r" d="M784 1139 Q846 1139 887 1130 L864 844 Q827 854 774 854 Q628 854 546.5 779 Q465 704 465 569 L465 0 L160 0 L160 1118 L391 1118 L436 930 L451 930 Q503 1024 591.5 1081.5 Q680 1139 784 1139 Z" /><glyph glyph-name="s" unicode="s" d="M940 332 Q940 160 820.5 70 Q701 -20 463 -20 Q341 -20 255 -3.5 Q169 13 94 45 L94 297 Q179 257 285.5 230 Q392 203 473 203 Q639 203 639 299 Q639 335 617 357.5 Q595 380 541 408.5 Q487 437 397 475 Q268 529 207.5 575 Q147 621 119.5 680.5 Q92 740 92 827 Q92 976 207.5 1057.5 Q323 1139 535 1139 Q737 1139 928 1051 L836 831 Q752 867 679 890 Q606 913 530 913 Q395 913 395 840 Q395 799 438.5 769 Q482 739 629 680 Q760 627 821 581 Q882 535 911 475 Q940 415 940 332 Z" /><glyph glyph-name="t" unicode="t" d="M631 223 Q711 223 823 258 L823 31 Q709 -20 543 -20 Q360 -20 276.5 72.5 Q193 165 193 350 L193 889 L47 889 L47 1018 L215 1120 L303 1356 L498 1356 L498 1118 L811 1118 L811 889 L498 889 L498 350 Q498 285 534.5 254 Q571 223 631 223 Z" /><glyph glyph-name="u" unicode="u" d="M952 0 L911 143 L895 143 Q846 65 756 22.5 Q666 -20 551 -20 Q354 -20 254 85.5 Q154 191 154 389 L154 1118 L459 1118 L459 465 Q459 344 502 283.5 Q545 223 639 223 Q767 223 824 308.5 Q881 394 881 592 L881 1118 L1186 1118 L1186 0 L952 0 Z" /><glyph glyph-name="v" unicode="v" d="M426 0 L0 1118 L319 1118 L535 481 Q571 360 580 252 L586 252 Q591 348 631 481 L846 1118 L1165 1118 L739 0 L426 0 Z" /><glyph glyph-name="w" unicode="w" d="M1079 0 L993 391 L877 885 L870 885 L666 0 L338 0 L20 1118 L324 1118 L453 623 Q484 490 516 256 L522 256 Q526 332 557 497 L573 582 L711 1118 L1047 1118 L1178 582 Q1182 560 1190.5 517 Q1199 474 1207 425.5 Q1215 377 1221.5 330.5 Q1228 284 1229 256 L1235 256 Q1244 328 1267 453.5 Q1290 579 1300 623 L1434 1118 L1733 1118 L1411 0 L1079 0 Z" /><glyph glyph-name="x" unicode="x" d="M389 571 L29 1118 L375 1118 L592 762 L811 1118 L1157 1118 L793 571 L1174 0 L827 0 L592 383 L356 0 L10 0 L389 571 Z" /><glyph glyph-name="y" unicode="y" d="M0 1118 L334 1118 L545 489 Q572 407 582 295 L588 295 Q599 398 631 489 L838 1118 L1165 1118 L692 -143 Q627 -318 506.5 -405 Q386 -492 225 -492 Q146 -492 70 -475 L70 -233 Q125 -246 190 -246 Q271 -246 331.5 -196.5 Q392 -147 426 -47 L444 8 L0 1118 Z" /><glyph glyph-name="z" unicode="z" d="M938 0 L55 0 L55 180 L573 885 L86 885 L86 1118 L920 1118 L920 920 L416 233 L938 233 L938 0 Z" /><glyph glyph-name="braceleft" unicode="{" d="M287 270 Q287 357 221.5 403 Q156 449 31 449 L31 688 Q157 688 222 732 Q287 776 287 858 L287 866 L287 1184 Q287 1337 384 1399.5 Q481 1462 725 1462 L725 1237 Q626 1234 588.5 1199 Q551 1164 551 1096 L551 797 Q545 609 317 575 L317 563 Q551 528 551 351 L551 342 L551 43 Q551 -25 588 -60 Q625 -95 725 -98 L725 -324 Q481 -324 384 -261.5 Q287 -199 287 -45 L287 270 Z" /><glyph glyph-name="bar" unicode="|" d="M455 1550 L674 1550 L674 -465 L455 -465 L455 1550 Z" /><glyph glyph-name="braceright" unicode="}" d="M520 -45 Q520 -157 479 -214 Q438 -271 343.5 -297.5 Q249 -324 82 -324 L82 -98 Q181 -96 218.5 -62 Q256 -28 256 43 L256 342 L256 353 Q256 439 315 492.5 Q374 546 489 563 L489 575 Q262 609 256 797 L256 1096 Q256 1166 219 1200 Q182 1234 82 1237 L82 1462 Q249 1462 344 1435.5 Q439 1409 479.5 1351.5 Q520 1294 520 1184 L520 866 L520 856 Q520 772 581.5 730 Q643 688 776 688 L776 449 Q651 449 585.5 408 Q520 367 520 270 L520 -45 Z" /><glyph glyph-name="asciitilde" unicode="~" d="M322 672 Q267 672 204.5 638.5 Q142 605 88 551 L88 782 Q191 891 344 891 Q417 891 481.5 875 Q546 859 621 827 Q750 772 848 772 Q901 772 964 804 Q1027 836 1081 893 L1081 662 Q980 553 825 553 Q759 553 699 566 Q639 579 549 616 Q418 672 322 672 Z" /><glyph glyph-name="nonbreakingspace" unicode=" " d="" /><glyph glyph-name="exclamdown" unicode="¡" d="M168 606 L412 606 L463 -369 L117 -369 L168 606 ZM467 948 Q467 864 422 821 Q377 778 291 778 Q208 778 162.5 822 Q117 866 117 948 Q117 1029 163.5 1073.5 Q210 1118 291 1118 Q375 1118 421 1074 Q467 1030 467 948 Z" /><glyph glyph-name="cent" unicode="¢" d="M563 176 Q143 235 143 741 Q143 1002 247.5 1144 Q352 1286 563 1317 L563 1483 L741 1483 L741 1325 Q907 1316 1040 1251 L950 1016 Q878 1045 816 1063 Q754 1081 692 1081 Q571 1081 513 997.5 Q455 914 455 743 Q455 416 692 416 Q774 416 840 431.5 Q906 447 1006 492 L1006 238 Q879 177 741 168 L741 -20 L563 -20 L563 176 Z" /><glyph glyph-name="sterling" unicode="£" d="M700 1483 Q895 1483 1090 1401 L997 1171 Q840 1235 725 1235 Q647 1235 605 1190.5 Q563 1146 563 1063 L563 870 L938 870 L938 651 L563 651 L563 508 Q563 338 412 260 L1130 260 L1130 0 L82 0 L82 248 Q185 292 223.5 349 Q262 406 262 506 L262 651 L84 651 L84 870 L262 870 L262 1065 Q262 1266 376.5 1374.5 Q491 1483 700 1483 Z" /><glyph glyph-name="currency" unicode="¤" d="M188 723 Q188 825 242 920 L113 1047 L260 1194 L387 1067 Q478 1120 584 1120 Q689 1120 780 1065 L907 1194 L1057 1051 L928 922 Q981 833 981 723 Q981 616 928 524 L1053 399 L907 254 L780 379 Q685 328 584 328 Q469 328 385 379 L260 256 L115 401 L242 526 Q188 619 188 723 ZM395 723 Q395 646 449.5 590.5 Q504 535 584 535 Q665 535 720.5 590 Q776 645 776 723 Q776 803 719.5 858 Q663 913 584 913 Q506 913 450.5 857 Q395 801 395 723 Z" /><glyph glyph-name="yen" unicode="¥" d="M584 860 L848 1462 L1161 1462 L778 715 L973 715 L973 537 L727 537 L727 399 L973 399 L973 221 L727 221 L727 0 L440 0 L440 221 L193 221 L193 399 L440 399 L440 537 L193 537 L193 715 L383 715 L6 1462 L322 1462 L584 860 Z" /><glyph glyph-name="brokenbar" unicode="¦" d="M455 1550 L674 1550 L674 735 L455 735 L455 1550 ZM455 350 L674 350 L674 -465 L455 -465 L455 350 Z" /><glyph glyph-name="section" unicode="§" d="M121 805 Q121 884 157 949.5 Q193 1015 254 1055 Q121 1139 121 1288 Q121 1419 232.5 1498 Q344 1577 526 1577 Q696 1577 889 1493 L807 1303 Q739 1335 668.5 1360.5 Q598 1386 520 1386 Q439 1386 402 1363 Q365 1340 365 1292 Q365 1243 414.5 1206 Q464 1169 578 1124 Q741 1060 818 975.5 Q895 891 895 782 Q895 605 770 522 Q832 482 863.5 429.5 Q895 377 895 303 Q895 155 775.5 67.5 Q656 -20 455 -20 Q252 -20 106 59 L106 266 Q187 225 286 196.5 Q385 168 455 168 Q649 168 649 285 Q649 324 630.5 348 Q612 372 567 397.5 Q522 423 442 457 Q259 531 190 609.5 Q121 688 121 805 ZM344 827 Q344 760 409 708 Q474 656 590 610 Q668 667 668 756 Q668 824 617.5 871 Q567 918 434 967 Q397 953 370.5 913.5 Q344 874 344 827 Z" /><glyph glyph-name="dieresis" unicode="¨" d="M279 1405 Q279 1470 316.5 1505 Q354 1540 418 1540 Q484 1540 521.5 1503 Q559 1466 559 1405 Q559 1345 521 1308.5 Q483 1272 418 1272 Q354 1272 316.5 1307 Q279 1342 279 1405 ZM682 1405 Q682 1475 722.5 1507.5 Q763 1540 823 1540 Q888 1540 926.5 1504 Q965 1468 965 1405 Q965 1344 926 1308 Q887 1272 823 1272 Q763 1272 722.5 1304.5 Q682 1337 682 1405 Z" /><glyph glyph-name="copyright" unicode="©" d="M895 1010 Q798 1010 745 936 Q692 862 692 731 Q692 451 895 451 Q952 451 1018 466 Q1084 481 1141 510 L1141 319 Q1021 262 889 262 Q685 262 573 387 Q461 512 461 733 Q461 953 571.5 1075.5 Q682 1198 881 1198 Q1030 1198 1186 1120 L1112 952 Q999 1010 895 1010 ZM100 731 Q100 931 200 1106 Q300 1281 475 1382 Q650 1483 852 1483 Q1052 1483 1227 1383 Q1402 1283 1503 1108 Q1604 933 1604 731 Q1604 534 1507 361 Q1410 188 1235 84 Q1060 -20 852 -20 Q645 -20 470 83.5 Q295 187 197.5 360 Q100 533 100 731 ZM242 731 Q242 567 324 425.5 Q406 284 548 202.5 Q690 121 852 121 Q1016 121 1157.5 203 Q1299 285 1380.5 427 Q1462 569 1462 731 Q1462 895 1380 1036.5 Q1298 1178 1156 1259.5 Q1014 1341 852 1341 Q688 1341 546.5 1259 Q405 1177 323.5 1035 Q242 893 242 731 Z" /><glyph glyph-name="ordfeminine" unicode="ª" d="M561 764 L530 874 Q487 816 425 784 Q363 752 289 752 Q172 752 109.5 810.5 Q47 869 47 975 Q47 1084 129.5 1138.5 Q212 1193 397 1202 L496 1206 Q496 1323 369 1323 Q288 1323 152 1262 L86 1397 Q152 1429 231.5 1454 Q311 1479 410 1479 Q547 1479 621.5 1408 Q696 1337 696 1206 L696 764 L561 764 ZM252 977 Q252 939 275 921 Q298 903 330 903 Q407 903 451.5 944.5 Q496 986 496 1051 L496 1087 L397 1081 Q252 1071 252 977 Z" /><glyph glyph-name="guillemotleft" unicode="«" d="M82 573 L453 1028 L672 909 L393 561 L672 213 L453 94 L82 547 L82 573 ZM588 573 L958 1028 L1178 909 L899 561 L1178 213 L958 94 L588 547 L588 573 Z" /><glyph glyph-name="logicalnot" unicode="¬" d="M1081 248 L862 248 L862 612 L88 612 L88 831 L1081 831 L1081 248 Z" /><glyph glyph-name="registered" unicode="®" d="M1157 905 Q1157 735 1014 672 L1251 272 L997 272 L819 610 L772 610 L772 272 L543 272 L543 1188 L807 1188 Q988 1188 1072.5 1118 Q1157 1048 1157 905 ZM772 778 L803 778 Q869 778 897.5 806.5 Q926 835 926 901 Q926 966 898 993 Q870 1020 801 1020 L772 1020 L772 778 ZM100 731 Q100 931 200 1106 Q300 1281 475 1382 Q650 1483 852 1483 Q1052 1483 1227 1383 Q1402 1283 1503 1108 Q1604 933 1604 731 Q1604 534 1507 361 Q1410 188 1235 84 Q1060 -20 852 -20 Q645 -20 470 83.5 Q295 187 197.5 360 Q100 533 100 731 ZM242 731 Q242 567 324 425.5 Q406 284 548 202.5 Q690 121 852 121 Q1016 121 1157.5 203 Q1299 285 1380.5 427 Q1462 569 1462 731 Q1462 895 1380 1036.5 Q1298 1178 1156 1259.5 Q1014 1341 852 1341 Q688 1341 546.5 1259 Q405 1177 323.5 1035 Q242 893 242 731 Z" /><glyph glyph-name="macron" unicode="¯" d="M1030 1556 L-6 1556 L-6 1757 L1030 1757 L1030 1556 Z" /><glyph glyph-name="degree" unicode="°" d="M92 1137 Q92 1229 138 1309 Q184 1389 264 1436 Q344 1483 438 1483 Q530 1483 610.5 1437 Q691 1391 737.5 1310 Q784 1229 784 1137 Q784 1044 737.5 963.5 Q691 883 611 838 Q531 793 438 793 Q293 793 192.5 892.5 Q92 992 92 1137 ZM283 1137 Q283 1073 327.5 1028 Q372 983 438 983 Q504 983 549 1029 Q594 1075 594 1137 Q594 1200 548.5 1247 Q503 1294 438 1294 Q374 1294 328.5 1248 Q283 1202 283 1137 Z" /><glyph glyph-name="plusminus" unicode="±" d="M475 674 L88 674 L88 893 L475 893 L475 1282 L694 1282 L694 893 L1081 893 L1081 674 L694 674 L694 289 L475 289 L475 674 ZM88 0 L88 219 L1081 219 L1081 0 L88 0 Z" /><glyph glyph-name="twosuperior" unicode="²" d="M702 586 L55 586 L55 754 L279 973 Q381 1073 409.5 1117.5 Q438 1162 438 1212 Q438 1250 414 1270 Q390 1290 350 1290 Q269 1290 170 1202 L47 1354 Q194 1483 383 1483 Q520 1483 599 1416.5 Q678 1350 678 1233 Q678 1148 631 1073 Q584 998 455 881 L350 786 L702 786 L702 586 Z" /><glyph glyph-name="threesuperior" unicode="³" d="M666 1249 Q666 1106 496 1051 L496 1038 Q590 1018 642 963 Q694 908 694 829 Q694 708 606 638.5 Q518 569 332 569 Q189 569 59 639 L59 829 Q207 739 330 739 Q473 739 473 846 Q473 899 429 925.5 Q385 952 307 952 L195 952 L195 1112 L287 1112 Q370 1112 410.5 1138 Q451 1164 451 1221 Q451 1259 426 1284 Q401 1309 350 1309 Q303 1309 261 1290 Q219 1271 162 1231 L61 1372 Q123 1419 198.5 1450 Q274 1481 377 1481 Q504 1481 585 1417 Q666 1353 666 1249 Z" /><glyph glyph-name="acute" unicode="´" d="M332 1241 L332 1268 Q504 1468 567 1569 L909 1569 L909 1548 Q857 1496 731.5 1393.5 Q606 1291 535 1241 L332 1241 Z" /><glyph glyph-name="mu" unicode="µ" d="M465 465 Q465 344 509 283.5 Q553 223 647 223 Q773 223 830 309.5 Q887 396 887 592 L887 1118 L1192 1118 L1192 0 L961 0 L918 150 L903 150 Q861 65 801 22.5 Q741 -20 653 -20 Q591 -20 539 3 Q487 26 455 70 L460 -15 L465 -172 L465 -492 L160 -492 L160 1118 L465 1118 L465 465 Z" /><glyph glyph-name="paragraph" unicode="¶" d="M1167 -260 L1006 -260 L1006 1356 L840 1356 L840 -260 L678 -260 L678 559 Q616 541 532 541 Q316 541 214.5 666 Q113 791 113 1042 Q113 1302 222 1429 Q331 1556 563 1556 L1167 1556 L1167 -260 Z" /><glyph glyph-name="periodcentered" unicode="·" d="M117 723 Q117 807 162 850 Q207 893 293 893 Q376 893 421.5 849 Q467 805 467 723 Q467 642 420.5 597.5 Q374 553 293 553 Q209 553 163 597 Q117 641 117 723 Z" /><glyph glyph-name="cedilla" unicode="¸" d="M418 -250 Q418 -378 342.5 -435 Q267 -492 109 -492 Q31 -492 -37 -471 L-37 -303 Q-10 -310 35.5 -317 Q81 -324 106 -324 Q178 -324 178 -262 Q178 -179 12 -154 L90 0 L283 0 L256 -61 Q330 -85 374 -135.5 Q418 -186 418 -250 Z" /><glyph glyph-name="onesuperior" unicode="¹" d="M584 586 L346 586 L346 1032 L349 1144 L354 1239 Q327 1203 279 1161 L201 1100 L92 1227 L393 1462 L584 1462 L584 586 Z" /><glyph glyph-name="ordmasculine" unicode="º" d="M737 1116 Q737 945 645.5 848.5 Q554 752 395 752 Q242 752 149.5 850.5 Q57 949 57 1116 Q57 1285 146.5 1382 Q236 1479 399 1479 Q551 1479 644 1380.5 Q737 1282 737 1116 ZM260 1116 Q260 1016 292.5 965.5 Q325 915 397 915 Q469 915 500.5 965.5 Q532 1016 532 1116 Q532 1216 500.5 1265.5 Q469 1315 397 1315 Q325 1315 292.5 1265.5 Q260 1216 260 1116 Z" /><glyph glyph-name="guillemotright" unicode="»" d="M1178 547 L807 94 L588 213 L866 561 L588 909 L807 1028 L1178 573 L1178 547 ZM672 547 L301 94 L82 213 L360 561 L82 909 L301 1028 L672 573 L672 547 Z" /><glyph glyph-name="questiondown" unicode="¿" d="M713 606 L713 532 Q713 434 668.5 363 Q624 292 516 215 Q407 137 378.5 93 Q350 49 350 -14 Q350 -71 393.5 -108 Q437 -145 526 -145 Q605 -145 695 -116 Q785 -87 881 -45 L983 -266 Q885 -322 761.5 -356.5 Q638 -391 532 -391 Q312 -391 186.5 -294.5 Q61 -198 61 -29 Q61 79 109.5 158 Q158 237 301 342 Q396 412 422.5 449 Q449 486 449 547 L449 606 L713 606 ZM745 948 Q745 864 700 821 Q655 778 569 778 Q486 778 440.5 822 Q395 866 395 948 Q395 1029 441.5 1073.5 Q488 1118 569 1118 Q653 1118 699 1074 Q745 1030 745 948 Z" /><glyph glyph-name="AE" unicode="æ" d="M1829 0 L956 0 L956 348 L465 348 L315 0 L0 0 L655 1462 L1829 1462 L1829 1208 L1266 1208 L1266 887 L1792 887 L1792 633 L1266 633 L1266 256 L1829 256 L1829 0 ZM578 608 L956 608 L956 1198 L829 1198 L578 608 Z" /><glyph glyph-name="Eth" unicode="ð" d="M47 850 L184 850 L184 1462 L643 1462 Q1001 1462 1199 1273 Q1397 1084 1397 745 Q1397 384 1191.5 192 Q986 0 598 0 L184 0 L184 596 L47 596 L47 850 ZM1075 737 Q1075 969 971 1088.5 Q867 1208 657 1208 L494 1208 L494 850 L731 850 L731 596 L494 596 L494 256 L625 256 Q1075 256 1075 737 Z" /><glyph glyph-name="multiply" unicode="×" d="M428 723 L129 1024 L281 1178 L582 879 L887 1178 L1040 1028 L735 723 L1036 420 L887 268 L582 569 L281 270 L131 422 L428 723 Z" /><glyph glyph-name="Oslash" unicode="ø" d="M1511 733 Q1511 370 1331 175 Q1151 -20 815 -20 Q618 -20 479 45 L389 -90 L227 18 L317 154 Q119 348 119 735 Q119 1100 299.5 1292.5 Q480 1485 817 1485 Q1015 1485 1161 1415 L1245 1540 L1405 1436 L1317 1305 Q1511 1111 1511 733 ZM444 733 Q444 542 500 426 L1006 1182 Q922 1227 817 1227 Q632 1227 538 1102.5 Q444 978 444 733 ZM1186 733 Q1186 913 1135 1030 L635 279 Q711 240 815 240 Q1186 240 1186 733 Z" /><glyph glyph-name="Thorn" unicode="þ" d="M1194 770 Q1194 541 1051.5 417 Q909 293 647 293 L494 293 L494 0 L184 0 L184 1462 L494 1462 L494 1233 L672 1233 Q926 1233 1060 1114 Q1194 995 1194 770 ZM494 543 L594 543 Q739 543 810 595.5 Q881 648 881 770 Q881 877 817.5 929 Q754 981 618 981 L494 981 L494 543 Z" /><glyph glyph-name="germandbls" unicode="ß" d="M1249 1241 Q1249 1177 1228 1128.5 Q1207 1080 1175 1042 Q1143 1004 1106 975 Q1069 946 1037 922 Q1005 898 984 877 Q963 856 963 834 Q963 807 989.5 781 Q1016 755 1082 715 Q1228 624 1280.5 575 Q1333 526 1358.5 465 Q1384 404 1384 326 Q1384 154 1267.5 67 Q1151 -20 924 -20 Q825 -20 753 -5.5 Q681 9 621 43 L621 285 Q674 249 756.5 224 Q839 199 903 199 Q1071 199 1071 322 Q1071 363 1055 388.5 Q1039 414 998 444 Q957 474 883 516 Q757 588 708 647.5 Q659 707 659 788 Q659 852 694 905 Q729 958 799 1007 Q876 1062 907 1102 Q938 1142 938 1188 Q938 1248 874.5 1288.5 Q811 1329 711 1329 Q595 1329 530 1276.5 Q465 1224 465 1128 L465 0 L160 0 L160 1139 Q160 1340 306.5 1453.5 Q453 1567 711 1567 Q955 1567 1102 1478.5 Q1249 1390 1249 1241 Z" /><glyph glyph-name="ae" unicode="æ" d="M1329 -20 Q1192 -20 1079.5 30.5 Q967 81 895 186 Q797 69 698.5 24.5 Q600 -20 442 -20 Q281 -20 183.5 74.5 Q86 169 86 334 Q86 512 207 596.5 Q328 681 569 690 L760 696 L760 780 Q760 849 715.5 882 Q671 915 594 915 Q454 915 289 838 L190 1040 Q379 1141 612 1141 Q839 1141 954 1010 Q1020 1074 1106.5 1106.5 Q1193 1139 1313 1139 Q1534 1139 1662 1001.5 Q1790 864 1790 631 L1790 483 L1067 483 Q1072 353 1144 280 Q1216 207 1346 207 Q1542 207 1726 295 L1726 59 Q1647 20 1555 0 Q1463 -20 1329 -20 ZM760 518 L647 514 Q523 510 461 466.5 Q399 423 399 332 Q399 203 539 203 Q640 203 700 264 Q760 325 760 426 L760 518 ZM1307 922 Q1090 922 1073 686 L1503 686 Q1501 798 1448 860 Q1395 922 1307 922 Z" /><glyph glyph-name="eth" unicode="ð" d="M510 1303 Q430 1356 358 1395 L459 1571 Q603 1506 717 1430 L942 1569 L1042 1415 L872 1311 Q1028 1168 1102 986.5 Q1176 805 1176 573 Q1176 293 1031 136.5 Q886 -20 631 -20 Q386 -20 239 117 Q92 254 92 489 Q92 722 222 858.5 Q352 995 573 995 Q778 995 848 897 L856 901 Q789 1063 664 1182 L434 1040 L334 1196 L510 1303 ZM864 532 Q864 640 803 705 Q742 770 635 770 Q514 770 458.5 701.5 Q403 633 403 487 Q403 347 463 276 Q523 205 635 205 Q758 205 811 287 Q864 369 864 532 Z" /><glyph glyph-name="divide" unicode="÷" d="M88 612 L88 831 L1081 831 L1081 612 L88 612 ZM444 373 Q444 449 481 486.5 Q518 524 584 524 Q650 524 686.5 485 Q723 446 723 373 Q723 303 686 262 Q649 221 584 221 Q519 221 481.5 260 Q444 299 444 373 ZM444 1071 Q444 1146 481 1184.5 Q518 1223 584 1223 Q651 1223 687 1182.5 Q723 1142 723 1071 Q723 1001 686 960.5 Q649 920 584 920 Q519 920 481.5 959 Q444 998 444 1071 Z" /><glyph glyph-name="oslash" unicode="ø" d="M1176 561 Q1176 288 1032 134 Q888 -20 631 -20 Q505 -20 397 25 L330 -76 L176 29 L244 129 Q92 285 92 561 Q92 835 235 987 Q378 1139 637 1139 Q769 1139 885 1087 L940 1169 L1092 1061 L1034 977 Q1176 822 1176 561 ZM403 561 Q403 467 422 395 L739 870 Q696 893 633 893 Q511 893 457 810.5 Q403 728 403 561 ZM864 561 Q864 642 852 702 L543 240 Q581 225 635 225 Q757 225 810.5 309.5 Q864 394 864 561 Z" /><glyph glyph-name="thorn" unicode="þ" d="M465 973 Q515 1054 596 1096.5 Q677 1139 782 1139 Q980 1139 1092 984.5 Q1204 830 1204 561 Q1204 288 1092.5 134 Q981 -20 782 -20 Q569 -20 465 117 L451 117 L458 55 L465 -39 L465 -492 L160 -492 L160 1556 L465 1556 L465 1165 L458 1045 L451 973 L465 973 ZM684 895 Q571 895 519 825.5 Q467 756 465 596 L465 563 Q465 383 518.5 305 Q572 227 688 227 Q893 227 893 565 Q893 730 842.5 812.5 Q792 895 684 895 Z" /><glyph glyph-name="dotlessi" unicode="&#x131;" d="M465 0 L160 0 L160 1118 L465 1118 L465 0 Z" /><glyph glyph-name="OE" unicode="&#x152;" d="M1872 0 L999 0 Q961 -9 890 -14.5 Q819 -20 774 -20 Q455 -20 287 177 Q119 374 119 735 Q119 1098 288.5 1291.5 Q458 1485 776 1485 Q837 1485 903 1478 Q969 1471 1004 1462 L1872 1462 L1872 1208 L1309 1208 L1309 887 L1835 887 L1835 633 L1309 633 L1309 256 L1872 256 L1872 0 ZM776 1227 Q610 1227 524 1101.5 Q438 976 438 733 Q438 489 524 364.5 Q610 240 774 240 Q839 240 900 250.5 Q961 261 999 279 L999 1186 Q964 1205 897.5 1216 Q831 1227 776 1227 Z" /><glyph glyph-name="oe" unicode="&#x153;" d="M1446 -20 Q1175 -20 1026 135 Q885 -20 635 -20 Q473 -20 349 50 Q225 120 158.5 252 Q92 384 92 561 Q92 838 233.5 988.5 Q375 1139 633 1139 Q745 1139 845 1099.5 Q945 1060 1016 983 Q1160 1139 1399 1139 Q1643 1139 1779 1004 Q1915 869 1915 631 L1915 483 L1169 483 L1169 475 Q1176 348 1250.5 277.5 Q1325 207 1458 207 Q1565 207 1658 228 Q1751 249 1851 295 L1851 59 Q1770 20 1675.5 0 Q1581 -20 1446 -20 ZM403 561 Q403 395 457.5 310 Q512 225 635 225 Q757 225 810.5 309.5 Q864 394 864 561 Q864 727 810 810 Q756 893 633 893 Q511 893 457 810.5 Q403 728 403 561 ZM1405 922 Q1311 922 1249 864.5 Q1187 807 1178 686 L1628 686 Q1626 797 1567.5 859.5 Q1509 922 1405 922 Z" /><glyph glyph-name="circumflex" unicode="&#x2c6;" d="M852 1241 Q695 1334 618 1417 Q540 1336 389 1241 L186 1241 L186 1268 Q375 1457 442 1569 L799 1569 Q830 1517 906.5 1427.5 Q983 1338 1055 1268 L1055 1241 L852 1241 Z" /><glyph glyph-name="ring" unicode="&#x2da;" d="M842 1479 Q842 1371 771 1305 Q700 1239 588 1239 Q476 1239 408 1303 Q340 1367 340 1477 Q340 1585 407.5 1649.5 Q475 1714 588 1714 Q698 1714 770 1648 Q842 1582 842 1479 ZM684 1477 Q684 1522 657 1547.5 Q630 1573 588 1573 Q546 1573 519 1547.5 Q492 1522 492 1477 Q492 1432 516 1406 Q540 1380 588 1380 Q630 1380 657 1406 Q684 1432 684 1477 Z" /><glyph glyph-name="tilde" unicode="&#x2dc;" d="M457 1346 Q426 1346 397.5 1319.5 Q369 1293 356 1239 L207 1239 Q218 1384 289.5 1466 Q361 1548 479 1548 Q520 1548 559.5 1531.5 Q599 1515 637.5 1495.5 Q676 1476 713 1460 Q750 1444 786 1444 Q817 1444 845.5 1470 Q874 1496 887 1550 L1036 1550 Q1025 1405 952.5 1323 Q880 1241 764 1241 Q723 1241 683.5 1257.5 Q644 1274 605.5 1293.5 Q567 1313 530 1329.5 Q493 1346 457 1346 Z" /><glyph glyph-name="afii10051" unicode="&#x402;" d="M1133 -18 Q1017 -18 930 20 L930 276 Q1029 233 1102 233 Q1156 233 1181 248.5 Q1206 264 1218.5 298 Q1231 332 1231 387 L1231 514 Q1231 603 1189.5 638.5 Q1148 674 1053 674 L717 674 L717 0 L408 0 L408 1204 L41 1204 L41 1462 L1155 1462 L1155 1204 L717 1204 L717 932 L1065 932 Q1293 932 1416.5 829 Q1540 726 1540 537 L1540 408 Q1540 199 1437.5 90.5 Q1335 -18 1133 -18 Z" /><glyph glyph-name="afii10053" unicode="&#x404;" d="M842 1225 Q672 1225 565 1129.5 Q458 1034 446 864 L1079 864 L1079 610 L444 610 Q457 432 557.5 335 Q658 238 846 238 Q1017 238 1260 315 L1260 55 Q1154 15 1051.5 -2.5 Q949 -20 827 -20 Q483 -20 301 173.5 Q119 367 119 729 Q119 956 208 1127.5 Q297 1299 463.5 1391 Q630 1483 856 1483 Q986 1483 1096.5 1455.5 Q1207 1428 1315 1380 L1204 1128 L1117 1165 Q975 1225 842 1225 Z" /><glyph glyph-name="afii10058" unicode="&#x409;" d="M1274 901 L1389 901 Q1659 901 1806.5 785 Q1954 669 1954 457 Q1954 229 1807 114.5 Q1660 0 1372 0 L965 0 L965 1204 L674 1204 L658 1070 Q596 559 548.5 352.5 Q501 146 410 62 Q319 -22 164 -20 Q80 -20 16 2 L16 256 Q74 236 125 236 Q178 236 209 284.5 Q240 333 267.5 464.5 Q295 596 340.5 895.5 Q386 1195 418 1462 L1274 1462 L1274 901 ZM1274 254 L1368 254 Q1509 254 1574.5 304.5 Q1640 355 1640 457 Q1640 556 1574.5 601.5 Q1509 647 1346 647 L1274 647 L1274 254 Z" /><glyph glyph-name="afii10059" unicode="&#x40a;" d="M1960 457 Q1960 229 1813 114.5 Q1666 0 1378 0 L971 0 L971 631 L494 631 L494 0 L184 0 L184 1462 L494 1462 L494 889 L971 889 L971 1462 L1280 1462 L1280 901 L1395 901 Q1665 901 1812.5 785 Q1960 669 1960 457 ZM1280 254 L1374 254 Q1515 254 1581 304.5 Q1647 355 1647 457 Q1647 558 1579.5 602.5 Q1512 647 1352 647 L1280 647 L1280 254 Z" /><glyph glyph-name="afii10060" unicode="&#x40b;" d="M1231 0 L1231 514 Q1231 603 1196 638.5 Q1161 674 1081 674 L717 674 L717 0 L408 0 L408 1204 L41 1204 L41 1462 L1155 1462 L1155 1204 L717 1204 L717 932 L1102 932 Q1310 932 1425 827.5 Q1540 723 1540 537 L1540 0 L1231 0 Z" /><glyph glyph-name="afii10145" unicode="&#x40f;" d="M1341 0 L913 0 L913 -426 L614 -426 L614 0 L184 0 L184 1462 L494 1462 L494 258 L1032 258 L1032 1462 L1341 1462 L1341 0 Z" /><glyph glyph-name="afii10018" unicode="&#x411;" d="M494 901 L616 901 Q902 901 1058 785 Q1214 669 1214 457 Q1214 0 610 0 L184 0 L184 1462 L1108 1462 L1108 1206 L494 1206 L494 901 ZM494 254 L598 254 Q755 254 828 304.5 Q901 355 901 457 Q901 558 827 602.5 Q753 647 573 647 L494 647 L494 254 Z" /><glyph glyph-name="afii10021" unicode="&#x414;" d="M10 258 L123 258 Q268 548 352 837.5 Q436 1127 477 1462 L1329 1462 L1329 258 L1524 258 L1524 -426 L1225 -426 L1225 0 L309 0 L309 -426 L10 -426 L10 258 ZM723 1204 Q691 975 616.5 719 Q542 463 449 258 L1020 258 L1020 1204 L723 1204 Z" /><glyph glyph-name="afii10024" unicode="&#x416;" d="M520 760 L29 1462 L348 1462 L821 754 L821 1462 L1110 1462 L1110 754 L1583 1462 L1903 1462 L1411 760 L1931 0 L1599 0 L1110 741 L1110 0 L821 0 L821 741 L332 0 L0 0 L520 760 Z" /><glyph glyph-name="afii10025" unicode="&#x417;" d="M1194 1120 Q1194 979 1094 887 Q994 795 823 770 L823 764 Q1024 744 1131.5 653 Q1239 562 1239 416 Q1239 214 1075.5 97 Q912 -20 623 -20 Q301 -20 106 59 L106 319 Q200 274 326.5 248.5 Q453 223 563 223 Q932 223 932 438 Q932 535 813.5 587 Q695 639 463 639 L326 639 L326 881 L449 881 Q681 881 787 925 Q893 969 893 1071 Q893 1146 826.5 1190.5 Q760 1235 627 1235 Q421 1235 229 1116 L94 1323 Q219 1406 359 1444.5 Q499 1483 670 1483 Q909 1483 1051.5 1383 Q1194 1283 1194 1120 Z" /><glyph glyph-name="afii10026" unicode="&#x418;" d="M184 1462 L463 1462 L463 756 L459 567 L449 352 L455 352 L1130 1462 L1501 1462 L1501 0 L1225 0 L1225 702 Q1225 843 1243 1120 L1235 1120 L557 0 L184 0 L184 1462 Z" /><glyph glyph-name="afii10028" unicode="&#x41a;" d="M1376 0 L1024 0 L494 741 L494 0 L184 0 L184 1462 L494 1462 L494 754 L1018 1462 L1348 1462 L815 760 L1376 0 Z" /><glyph glyph-name="afii10029" unicode="&#x41b;" d="M1341 0 L1032 0 L1032 1204 L674 1204 L658 1070 Q596 559 548.5 352.5 Q501 146 410 62 Q319 -22 164 -20 Q80 -20 16 2 L16 256 Q74 236 125 236 Q178 236 209 284.5 Q240 333 267.5 464.5 Q295 596 340.5 895.5 Q386 1195 418 1462 L1341 1462 L1341 0 Z" /><glyph glyph-name="afii10037" unicode="&#x423;" d="M1337 1462 L885 428 Q800 233 725.5 148 Q651 63 549 21.5 Q447 -20 301 -20 Q176 -20 68 10 L68 276 Q156 240 287 240 Q370 240 421 278.5 Q472 317 506 412 L0 1462 L328 1462 L688 647 L698 647 L716 697 L1018 1462 L1337 1462 Z" /><glyph glyph-name="afii10040" unicode="&#x426;" d="M1341 246 L1559 246 L1559 -426 L1260 -426 L1260 0 L184 0 L184 1462 L494 1462 L494 258 L1032 258 L1032 1462 L1341 1462 L1341 246 Z" /><glyph glyph-name="afii10041" unicode="&#x427;" d="M1307 0 L997 0 L997 565 Q843 513 740.5 494 Q638 475 545 475 Q336 475 222.5 575.5 Q109 676 109 858 L109 1462 L418 1462 L418 946 Q418 840 467 786.5 Q516 733 633 733 Q715 733 796.5 749.5 Q878 766 997 807 L997 1462 L1307 1462 L1307 0 Z" /><glyph glyph-name="afii10042" unicode="&#x428;" d="M1260 258 L1714 258 L1714 1462 L2023 1462 L2023 0 L184 0 L184 1462 L494 1462 L494 258 L948 258 L948 1462 L1260 1462 L1260 258 Z" /><glyph glyph-name="afii10043" unicode="&#x429;" d="M1260 258 L1714 258 L1714 1462 L2023 1462 L2023 246 L2241 246 L2241 -426 L1942 -426 L1942 0 L184 0 L184 1462 L494 1462 L494 258 L948 258 L948 1462 L1260 1462 L1260 258 ZM2208 0 L2208 0 Z" /><glyph glyph-name="afii10044" unicode="&#x42a;" d="M1397 457 Q1397 229 1244.5 114.5 Q1092 0 793 0 L367 0 L367 1204 L0 1204 L0 1462 L676 1462 L676 901 L799 901 Q1085 901 1241 785 Q1397 669 1397 457 ZM676 254 L780 254 Q937 254 1010 304.5 Q1083 355 1083 457 Q1083 558 1009 602.5 Q935 647 756 647 L676 647 L676 254 Z" /><glyph glyph-name="afii10045" unicode="&#x42b;" d="M1184 457 Q1184 229 1032.5 114.5 Q881 0 584 0 L184 0 L184 1462 L494 1462 L494 901 L594 901 Q875 901 1029.5 784.5 Q1184 668 1184 457 ZM494 254 L575 254 Q728 254 799 304.5 Q870 355 870 457 Q870 559 801.5 603 Q733 647 561 647 L494 647 L494 254 ZM1671 0 L1362 0 L1362 1462 L1671 1462 L1671 0 Z" /><glyph glyph-name="afii10046" unicode="&#x42c;" d="M1214 457 Q1214 0 610 0 L184 0 L184 1462 L494 1462 L494 901 L616 901 Q902 901 1058 785 Q1214 669 1214 457 ZM494 254 L598 254 Q755 254 828 304.5 Q901 355 901 457 Q901 558 827 602.5 Q753 647 573 647 L494 647 L494 254 Z" /><glyph glyph-name="afii10047" unicode="&#x42d;" d="M553 1225 Q454 1225 358.5 1197 Q263 1169 170 1130 L72 1380 Q304 1483 559 1483 Q884 1483 1061.5 1283.5 Q1239 1084 1239 729 Q1239 367 1056.5 173.5 Q874 -20 530 -20 Q293 -20 98 55 L98 315 Q341 238 512 238 Q703 238 803.5 331 Q904 424 913 610 L279 610 L279 864 L911 864 Q905 1034 809 1129.5 Q713 1225 553 1225 Z" /><glyph glyph-name="afii10048" unicode="&#x42e;" d="M2073 733 Q2073 373 1904.5 176.5 Q1736 -20 1421 -20 Q1132 -20 966 146.5 Q800 313 774 631 L494 631 L494 0 L184 0 L184 1462 L494 1462 L494 889 L780 889 Q814 1178 978.5 1331.5 Q1143 1485 1423 1485 Q1739 1485 1906 1289 Q2073 1093 2073 733 ZM1092 733 Q1092 489 1176 364.5 Q1260 240 1421 240 Q1753 240 1753 733 Q1753 977 1670.5 1102 Q1588 1227 1425 1227 Q1261 1227 1176.5 1102 Q1092 977 1092 733 Z" /><glyph glyph-name="afii10049" unicode="&#x42f;" d="M676 561 L334 0 L-10 0 L406 643 Q282 693 216 797.5 Q150 902 150 1044 Q150 1245 292.5 1353.5 Q435 1462 702 1462 L1178 1462 L1178 0 L868 0 L868 561 L676 561 ZM868 1208 L715 1208 Q595 1208 529 1165 Q463 1122 463 1022 Q463 925 527 869 Q591 813 723 813 L868 813 L868 1208 Z" /><glyph glyph-name="afii10066" unicode="&#x431;" d="M92 670 Q92 1055 238.5 1254.5 Q385 1454 696 1507 Q847 1533 1147 1573 L1182 1307 Q1052 1292 721 1243 Q595 1223 533 1183 Q471 1143 440.5 1069 Q410 995 403 872 L418 872 Q471 954 558 998 Q645 1042 745 1042 Q952 1042 1067 915.5 Q1182 789 1182 553 Q1182 281 1036.5 130.5 Q891 -20 635 -20 Q379 -20 235.5 163.5 Q92 347 92 670 ZM653 227 Q870 227 870 526 Q870 817 674 817 Q620 817 566.5 792 Q513 767 468.5 726.5 Q424 686 403 645 Q403 442 468 334.5 Q533 227 653 227 Z" /><glyph glyph-name="afii10067" unicode="&#x432;" d="M1192 825 Q1192 735 1135.5 671.5 Q1079 608 969 590 L969 582 Q1088 568 1157.5 500.5 Q1227 433 1227 334 Q1227 171 1099 85.5 Q971 0 733 0 L160 0 L160 1118 L733 1118 Q963 1118 1077.5 1043.5 Q1192 969 1192 825 ZM911 350 Q911 416 860 445.5 Q809 475 707 475 L465 475 L465 211 L713 211 Q810 211 860.5 247.5 Q911 284 911 350 ZM883 801 Q883 903 721 903 L465 903 L465 682 L686 682 Q783 682 833 710 Q883 738 883 801 Z" /><glyph glyph-name="afii10068" unicode="&#x433;" d="M932 1118 L932 889 L465 889 L465 0 L160 0 L160 1118 L932 1118 Z" /><glyph glyph-name="afii10069" unicode="&#x434;" d="M860 223 L860 889 L631 889 Q606 703 562.5 536 Q519 369 442 223 L860 223 ZM1329 -401 L1055 -401 L1055 0 L303 0 L303 -401 L29 -401 L29 223 L123 223 Q219 372 284 599 Q349 826 375 1118 L1165 1118 L1165 223 L1329 223 L1329 -401 Z" /><glyph glyph-name="afii10072" unicode="&#x436;" d="M752 575 L752 1118 L1036 1118 L1036 575 L1434 1118 L1749 1118 L1337 582 L1788 0 L1462 0 L1036 567 L1036 0 L752 0 L752 567 L326 0 L0 0 L451 582 L39 1118 L354 1118 L752 575 Z" /><glyph glyph-name="afii10073" unicode="&#x437;" d="M438 688 Q611 688 683.5 716 Q756 744 756 805 Q756 859 703 886 Q650 913 528 913 Q451 913 353.5 894 Q256 875 176 842 L86 1055 Q205 1100 317 1119.5 Q429 1139 567 1139 Q776 1139 902 1059 Q1028 979 1028 842 Q1028 653 805 596 L805 586 Q942 552 1000.5 489.5 Q1059 427 1059 326 Q1059 224 993 145 Q927 66 802 23 Q677 -20 508 -20 Q228 -20 78 49 L78 301 Q164 261 266.5 238 Q369 215 465 215 Q614 215 688 248.5 Q762 282 762 344 Q762 412 684 444.5 Q606 477 444 477 L326 477 L326 688 L438 688 Z" /><glyph glyph-name="afii10074" unicode="&#x438;" d="M455 1118 L455 676 Q455 606 432 334 L948 1118 L1315 1118 L1315 0 L1020 0 L1020 446 Q1020 565 1040 782 L526 0 L160 0 L160 1118 L455 1118 Z" /><glyph glyph-name="afii10076" unicode="&#x43a;" d="M893 1118 L1229 1118 L786 582 L1268 0 L922 0 L465 567 L465 0 L160 0 L160 1118 L465 1118 L465 575 L893 1118 Z" /><glyph glyph-name="afii10077" unicode="&#x43b;" d="M1161 0 L856 0 L856 889 L575 889 Q543 514 497 329.5 Q451 145 374.5 62.5 Q298 -20 174 -20 Q68 -20 0 12 L0 256 Q49 236 98 236 Q155 236 193.5 318 Q232 400 262.5 591.5 Q293 783 315 1118 L1161 1118 L1161 0 Z" /><glyph glyph-name="afii10078" unicode="&#x43c;" d="M1569 0 L1284 0 L1284 881 L1268 819 Q1214 608 1171 500 L973 0 L756 0 L555 504 Q512 614 463 813 L444 881 L444 0 L160 0 L160 1118 L580 1118 L772 641 Q802 564 827.5 464 Q853 364 862 293 Q895 443 913.5 508.5 Q932 574 954 629 Q976 684 1153 1118 L1569 1118 L1569 0 Z" /><glyph glyph-name="afii10079" unicode="&#x43d;" d="M465 1118 L465 688 L891 688 L891 1118 L1196 1118 L1196 0 L891 0 L891 461 L465 461 L465 0 L160 0 L160 1118 L465 1118 Z" /><glyph glyph-name="afii10081" unicode="&#x43f;" d="M1176 1118 L1176 0 L870 0 L870 889 L465 889 L465 0 L160 0 L160 1118 L1176 1118 Z" /><glyph glyph-name="afii10084" unicode="&#x442;" d="M1085 1118 L1085 889 L719 889 L719 0 L414 0 L414 889 L47 889 L47 1118 L1085 1118 Z" /><glyph glyph-name="afii10086" unicode="&#x444;" d="M977 1124 Q1257 1101 1416 951 Q1575 801 1575 559 Q1575 312 1418 163.5 Q1261 15 977 -8 L977 -492 L694 -492 L694 -8 Q411 18 251.5 169.5 Q92 321 92 559 Q92 812 246 958.5 Q400 1105 694 1124 L694 1556 L977 1556 L977 1124 ZM406 559 Q406 418 483 329.5 Q560 241 694 223 L694 895 Q565 878 485.5 786 Q406 694 406 559 ZM1262 559 Q1262 691 1187 781.5 Q1112 872 977 891 L977 223 Q1110 241 1186 330 Q1262 419 1262 559 Z" /><glyph glyph-name="afii10088" unicode="&#x446;" d="M1217 223 L1380 223 L1380 -401 L1106 -401 L1106 0 L160 0 L160 1118 L465 1118 L465 229 L911 229 L911 1118 L1217 1118 L1217 223 Z" /><glyph glyph-name="afii10089" unicode="&#x447;" d="M428 1118 L428 709 Q428 563 563 563 Q651 563 726.5 583 Q802 603 879 635 L879 1118 L1184 1118 L1184 0 L879 0 L879 444 Q773 388 682 365 Q591 342 506 342 Q323 342 223 435.5 Q123 529 123 702 L123 1118 L428 1118 Z" /><glyph glyph-name="afii10090" unicode="&#x448;" d="M1825 0 L160 0 L160 1118 L465 1118 L465 229 L840 229 L840 1118 L1145 1118 L1145 229 L1520 229 L1520 1118 L1825 1118 L1825 0 Z" /><glyph glyph-name="afii10091" unicode="&#x449;" d="M1825 223 L1989 223 L1989 -401 L1714 -401 L1714 0 L160 0 L160 1118 L465 1118 L465 229 L840 229 L840 1118 L1145 1118 L1145 229 L1520 229 L1520 1118 L1825 1118 L1825 223 ZM1985 0 L1985 0 Z" /><glyph glyph-name="afii10092" unicode="&#x44a;" d="M662 1118 L662 686 L877 686 Q1135 686 1258.5 604 Q1382 522 1382 356 Q1382 0 889 0 L356 0 L356 889 L0 889 L0 1118 L662 1118 ZM1077 352 Q1077 417 1025.5 446 Q974 475 870 475 L662 475 L662 211 L874 211 Q1077 211 1077 352 Z" /><glyph glyph-name="afii10093" unicode="&#x44b;" d="M465 686 L612 686 Q868 686 991 604 Q1114 522 1114 356 Q1114 179 991 89.5 Q868 0 623 0 L160 0 L160 1118 L465 1118 L465 686 ZM809 352 Q809 417 757 446 Q705 475 602 475 L465 475 L465 211 L606 211 Q809 211 809 352 ZM1581 0 L1276 0 L1276 1118 L1581 1118 L1581 0 Z" /><glyph glyph-name="afii10094" unicode="&#x44c;" d="M465 686 L680 686 Q938 686 1062 604 Q1186 522 1186 356 Q1186 0 692 0 L160 0 L160 1118 L465 1118 L465 686 ZM881 352 Q881 417 829 446 Q777 475 674 475 L465 475 L465 211 L678 211 Q881 211 881 352 Z" /><glyph glyph-name="afii10095" unicode="&#x44d;" d="M418 -20 Q208 -20 74 49 L74 287 Q248 207 401 207 Q511 207 571 271 Q631 335 641 463 L219 463 L219 666 L641 666 Q633 789 579.5 851 Q526 913 426 913 Q307 913 166 850 L80 1059 Q155 1094 249.5 1116.5 Q344 1139 438 1139 Q700 1139 828 997 Q956 855 956 571 Q956 279 820.5 129.5 Q685 -20 418 -20 Z" /><glyph glyph-name="afii10096" unicode="&#x44e;" d="M1704 561 Q1704 286 1565 133 Q1426 -20 1180 -20 Q959 -20 826.5 104 Q694 228 666 461 L465 461 L465 0 L160 0 L160 1118 L465 1118 L465 688 L670 688 Q699 902 835.5 1020.5 Q972 1139 1186 1139 Q1423 1139 1563.5 983.5 Q1704 828 1704 561 ZM973 561 Q973 394 1022 309.5 Q1071 225 1184 225 Q1295 225 1344 309.5 Q1393 394 1393 561 Q1393 728 1343.5 810.5 Q1294 893 1182 893 Q1071 893 1022 810 Q973 727 973 561 Z" /><glyph glyph-name="afii10097" unicode="&#x44f;" d="M330 0 L0 0 L301 442 Q193 487 137.5 572 Q82 657 82 772 Q82 934 203.5 1026 Q325 1118 535 1118 L1055 1118 L1055 0 L750 0 L750 416 L582 416 L330 0 ZM381 770 Q381 700 436 660.5 Q491 621 580 621 L750 621 L750 903 L541 903 Q466 903 423.5 866.5 Q381 830 381 770 Z" /><glyph glyph-name="afii10099" unicode="&#x452;" d="M829 -492 Q722 -492 645 -467 L645 -227 Q704 -246 764 -246 Q887 -246 887 -76 L887 614 Q887 724 840 779 Q793 834 707 834 Q580 834 522.5 746.5 Q465 659 465 465 L465 0 L160 0 L160 1196 L4 1196 L4 1395 L160 1395 L160 1556 L465 1556 L465 1395 L780 1395 L780 1196 L465 1196 L465 1178 Q465 1095 451 913 L469 913 Q571 1077 793 1077 Q990 1077 1091 972 Q1192 867 1192 668 L1192 -121 Q1192 -300 1098 -396 Q1004 -492 829 -492 Z" /><glyph glyph-name="afii10101" unicode="&#x454;" d="M653 -20 Q375 -20 233.5 125.5 Q92 271 92 553 Q92 851 227 995 Q362 1139 651 1139 Q835 1139 1008 1065 L920 848 Q750 913 643 913 Q538 913 480.5 852 Q423 791 408 666 L829 666 L829 463 L408 463 Q422 332 477 269.5 Q532 207 635 207 Q714 207 793.5 225 Q873 243 975 287 L975 53 Q833 -20 653 -20 Z" /><glyph glyph-name="afii10106" unicode="&#x459;" d="M813 0 L813 889 L575 889 Q543 514 497 329.5 Q451 145 374.5 62.5 Q298 -20 174 -20 Q68 -20 0 12 L0 256 Q49 236 98 236 Q155 236 193.5 318 Q232 400 262.5 591.5 Q293 783 315 1118 L1118 1118 L1118 686 L1260 686 Q1508 686 1627.5 604 Q1747 522 1747 356 Q1747 0 1266 0 L813 0 ZM1442 352 Q1442 417 1393 446 Q1344 475 1247 475 L1118 475 L1118 211 L1251 211 Q1442 211 1442 352 Z" /><glyph glyph-name="afii10107" unicode="&#x45a;" d="M1118 686 L1260 686 Q1508 686 1627.5 604 Q1747 522 1747 356 Q1747 0 1266 0 L813 0 L813 461 L465 461 L465 0 L160 0 L160 1118 L465 1118 L465 688 L813 688 L813 1118 L1118 1118 L1118 686 ZM1442 352 Q1442 417 1393 446 Q1344 475 1247 475 L1118 475 L1118 211 L1251 211 Q1442 211 1442 352 Z" /><glyph glyph-name="afii10108" unicode="&#x45b;" d="M1192 0 L887 0 L887 592 Q887 834 707 834 Q580 834 522.5 746.5 Q465 659 465 465 L465 0 L160 0 L160 1196 L4 1196 L4 1395 L160 1395 L160 1556 L465 1556 L465 1395 L780 1395 L780 1196 L465 1196 L465 1178 Q465 1095 451 913 L469 913 Q571 1077 793 1077 Q990 1077 1091 972 Q1192 867 1192 668 L1192 0 Z" /><glyph glyph-name="afii10193" unicode="&#x45f;" d="M160 0 L160 1118 L465 1118 L465 229 L911 229 L911 1118 L1217 1118 L1217 0 L825 0 L825 -401 L551 -401 L551 0 L160 0 Z" /><glyph glyph-name="afii10050" unicode="&#x490;" d="M494 0 L184 0 L184 1462 L881 1462 L881 1772 L1149 1772 L1149 1206 L494 1206 L494 0 Z" /><glyph glyph-name="afii10098" unicode="&#x491;" d="M465 0 L160 0 L160 1118 L700 1118 L700 1423 L975 1423 L975 889 L465 889 L465 0 Z" /><glyph glyph-name="uni04B0" unicode="&#x4b0;" d="M639 860 L944 1462 L1278 1462 L793 569 L793 528 L1112 528 L1112 270 L793 270 L793 0 L485 0 L485 270 L166 270 L166 528 L485 528 L485 559 L0 1462 L336 1462 L639 860 Z" /><glyph glyph-name="uni04B1" unicode="&#x4b1;" d="M1032 0 L1032 -229 L741 -229 L741 -492 L434 -492 L434 -229 L143 -229 L143 0 L434 0 L0 1118 L336 1118 L512 614 Q538 541 569 398 L582 338 L594 338 Q630 518 664 614 L842 1118 L1176 1118 L741 0 L1032 0 Z" /><glyph glyph-name="endash" unicode="&#x2013;" d="M82 436 L82 666 L942 666 L942 436 L82 436 Z" /><glyph glyph-name="emdash" unicode="&#x2014;" d="M82 436 L82 666 L1966 666 L1966 436 L82 436 Z" /><glyph glyph-name="quoteleft" unicode="&#x2018;" d="M39 961 L25 983 Q47 1074 97.5 1211.5 Q148 1349 201 1462 L420 1462 Q354 1195 319 961 L39 961 Z" /><glyph glyph-name="quoteright" unicode="&#x2019;" d="M406 1462 L420 1440 Q370 1243 244 961 L25 961 Q94 1257 125 1462 L406 1462 Z" /><glyph glyph-name="quotesinglbase" unicode="&#x201a;" d="M459 215 Q407 13 283 -264 L63 -264 Q128 2 164 238 L444 238 L459 215 Z" /><glyph glyph-name="quotedblleft" unicode="&#x201c;" d="M492 983 Q514 1074 564.5 1211.5 Q615 1349 668 1462 L887 1462 Q821 1195 786 961 L506 961 L492 983 ZM25 983 Q47 1074 97.5 1211.5 Q148 1349 201 1462 L420 1462 Q354 1195 319 961 L39 961 L25 983 Z" /><glyph glyph-name="quotedblright" unicode="&#x201d;" d="M420 1440 Q370 1243 244 961 L25 961 Q94 1257 125 1462 L406 1462 L420 1440 ZM887 1440 Q837 1243 711 961 L492 961 Q561 1257 592 1462 L872 1462 L887 1440 Z" /><glyph glyph-name="quotedblbase" unicode="&#x201e;" d="M459 215 Q407 13 283 -264 L63 -264 Q128 2 164 238 L444 238 L459 215 ZM926 215 Q874 13 750 -264 L530 -264 Q595 2 631 238 L911 238 L926 215 Z" /><glyph glyph-name="bullet" unicode="&#x2022;" d="M98 748 Q98 902 172 983.5 Q246 1065 385 1065 Q522 1065 597 983 Q672 901 672 748 Q672 596 596.5 513 Q521 430 385 430 Q247 430 172.5 513 Q98 596 98 748 Z" /><glyph glyph-name="guilsinglleft" unicode="&#x2039;" d="M82 573 L453 1028 L672 909 L393 561 L672 213 L453 94 L82 547 L82 573 Z" /><glyph glyph-name="guilsinglright" unicode="&#x203a;" d="M672 547 L301 94 L82 213 L360 561 L82 909 L301 1028 L672 573 L672 547 Z" /><glyph glyph-name="fraction" unicode="&#x2044;" d="M657 1462 L-154 0 L-393 0 L418 1462 L657 1462 Z" /><glyph glyph-name="foursuperior" unicode="&#x2074;" d="M758 737 L633 737 L633 586 L395 586 L395 737 L12 737 L12 891 L397 1468 L633 1468 L633 905 L758 905 L758 737 ZM395 905 L395 1069 Q395 1155 401 1253 Q392 1227 365.5 1173 Q339 1119 324 1096 L197 905 L395 905 Z" /><glyph glyph-name="Euro" unicode="&#x20ac;" d="M803 1225 Q681 1225 602 1154.5 Q523 1084 500 950 L903 950 L903 774 L485 774 L483 739 L483 692 L485 659 L840 659 L840 481 L502 481 Q553 238 823 238 Q966 238 1098 295 L1098 39 Q982 -20 805 -20 Q560 -20 402 113 Q244 246 203 481 L66 481 L66 659 L184 659 Q180 682 180 721 L182 774 L66 774 L66 950 L199 950 Q236 1192 398 1332.5 Q560 1473 803 1473 Q991 1473 1155 1391 L1057 1159 Q988 1190 928 1207.5 Q868 1225 803 1225 Z" /><glyph glyph-name="afii61352" unicode="&#x2116;" d="M1231 0 L903 0 L393 1047 L379 1047 Q403 790 403 629 L403 0 L135 0 L135 1462 L465 1462 L971 422 L989 422 Q965 655 965 825 L965 1462 L1231 1462 L1231 0 ZM1370 0 L1370 188 L2009 188 L2009 0 L1370 0 ZM2030 639 Q2030 468 1938 371 Q1846 274 1688 274 Q1534 274 1442 373 Q1350 472 1350 639 Q1350 807 1440 904 Q1530 1001 1692 1001 Q1846 1001 1938 901.5 Q2030 802 2030 639 ZM1552 639 Q1552 539 1584.5 488.5 Q1617 438 1690 438 Q1761 438 1793 488.5 Q1825 539 1825 639 Q1825 739 1793 788.5 Q1761 838 1690 838 Q1617 838 1584.5 788.5 Q1552 739 1552 639 Z" /><glyph glyph-name="minus" unicode="&#x2212;" d="M88 612 L88 831 L1081 831 L1081 612 L88 612 Z" /></font>
</defs>
</svg>
